User Type,Username,Date,Text
[T],thetorrentlord,2011-10-07T21:11Z,"Your effort is always welcome, but if you truly did rip from the DVD I am just letting you know that the quality is not very good. Here is an example of the settings and the result of a standard DVD rip downloaded from here.(90210.s03e01.dvdrip.xvid-reward.avi
Format                           : AVI
Format/Info                      : Audio Video Interleave
File size                        : 350 MiB
Duration                         : 39mn 56s
Overall bit rate                 : 1 225 Kbps
Writing application              : VirtualDubMod 1.5.10.2 (build 2540/release)
Writing library                  : VirtualDubMod build 2540/release

Video
ID                               : 0
Format                           : MPEG-4 Visual
Format profile                   : Advanced Simple@L5
Format settings, BVOP            : Yes
Format settings, QPel            : No
Format settings, GMC             : No warppoints
Format settings, Matrix          : Default (H.263)
Muxing mode                      : Packed bitstream
Codec ID                         : XVID
Codec ID/Hint                    : XviD
Duration                         : 39mn 56s
Bit rate                         : 1 090 Kbps
Width                            : 640 pixels
Height                           : 368 pixels
Display aspect ratio             : 16:9
Frame rate                       : 25.000 fps
Color space                      : YUV
Chroma subsampling               : 4:2:0
Bit depth                        : 8 bits
Scan type                        : Progressive
Bits/(Pixel*Frame)               : 0.185
Stream size                      : 311 MiB (89%)
Writing library                  : XviD 57

Audio
ID                               : 1
Format                           : MPEG Audio
Format version                   : Version 1
Format profile                   : Layer 3
Mode                             : Joint stereo
Mode extension                   : MS Stereo
Codec ID                         : 55
Codec ID/Hint                    : MP3
Duration                         : 39mn 56s
Bit rate mode                    : Variable
Bit rate                         : 122 Kbps
Nominal bit rate                 : 128 Kbps
Channel(s)                       : 2 channels
Sampling rate                    : 48.0 KHz
Stream size                      : 34.8 MiB (10%)
Alignment                        : Aligned on interleaves
Interleave, duration             : 24 ms (0.60 video frame)
Interleave, preload duration     : 151 ms
Writing library                  : LAME3.98r
Encoding settings                : -m j -V 4 -q 2 -lowpass 17 --abr 128

) Nest time try the xvid codec and you should get better results. Thanks again for all the work."
